<mxfile host="app.diagrams.net" agent="Mozilla/5.0 (Macintosh; Intel Mac OS X 10.15; rv:144.0) Gecko/20100101 Firefox/144.0" version="28.2.5">
  <diagram name="第 1 页" id="7KOVuoNR6yLcS_YiWcBr">
    <mxGraphModel dx="1426" dy="802" grid="1" gridSize="10" guides="1" tooltips="1" connect="1" arrows="1" fold="1" page="1" pageScale="1" pageWidth="1169" pageHeight="827" math="0" shadow="0">
      <root>
        <mxCell id="0" />
        <mxCell id="1" parent="0" />
        <mxCell id="sAVfpXOolL90ge-oOt5B-12" style="edgeStyle=orthogonalEdgeStyle;rounded=0;orthogonalLoop=1;jettySize=auto;html=1;entryX=0.5;entryY=0;entryDx=0;entryDy=0;" edge="1" parent="1" source="sAVfpXOolL90ge-oOt5B-1" target="sAVfpXOolL90ge-oOt5B-2">
          <mxGeometry relative="1" as="geometry" />
        </mxCell>
        <mxCell id="sAVfpXOolL90ge-oOt5B-1" value="GTM 團隊發起客戶帳號停用" style="ellipse;whiteSpace=wrap;html=1;" vertex="1" parent="1">
          <mxGeometry x="245" y="40" width="170" height="80" as="geometry" />
        </mxCell>
        <mxCell id="sAVfpXOolL90ge-oOt5B-13" value="" style="edgeStyle=orthogonalEdgeStyle;rounded=0;orthogonalLoop=1;jettySize=auto;html=1;" edge="1" parent="1" source="sAVfpXOolL90ge-oOt5B-2" target="sAVfpXOolL90ge-oOt5B-3">
          <mxGeometry relative="1" as="geometry" />
        </mxCell>
        <mxCell id="sAVfpXOolL90ge-oOt5B-2" value="&lt;div&gt;GTM 建立 客戶帳號&lt;/div&gt;&lt;div&gt;停用的JIRA 工單&lt;/div&gt;" style="rounded=0;whiteSpace=wrap;html=1;" vertex="1" parent="1">
          <mxGeometry x="270" y="180" width="120" height="60" as="geometry" />
        </mxCell>
        <mxCell id="sAVfpXOolL90ge-oOt5B-6" value="" style="edgeStyle=orthogonalEdgeStyle;rounded=0;orthogonalLoop=1;jettySize=auto;html=1;startArrow=classic;startFill=1;" edge="1" parent="1" source="sAVfpXOolL90ge-oOt5B-3" target="sAVfpXOolL90ge-oOt5B-4">
          <mxGeometry relative="1" as="geometry" />
        </mxCell>
        <mxCell id="sAVfpXOolL90ge-oOt5B-19" value="N" style="edgeLabel;html=1;align=center;verticalAlign=middle;resizable=0;points=[];" vertex="1" connectable="0" parent="sAVfpXOolL90ge-oOt5B-6">
          <mxGeometry x="0.1692" y="2" relative="1" as="geometry">
            <mxPoint as="offset" />
          </mxGeometry>
        </mxCell>
        <mxCell id="sAVfpXOolL90ge-oOt5B-14" value="" style="edgeStyle=orthogonalEdgeStyle;rounded=0;orthogonalLoop=1;jettySize=auto;html=1;" edge="1" parent="1" source="sAVfpXOolL90ge-oOt5B-3" target="sAVfpXOolL90ge-oOt5B-10">
          <mxGeometry relative="1" as="geometry" />
        </mxCell>
        <mxCell id="sAVfpXOolL90ge-oOt5B-20" value="Y" style="edgeLabel;html=1;align=center;verticalAlign=middle;resizable=0;points=[];" vertex="1" connectable="0" parent="sAVfpXOolL90ge-oOt5B-14">
          <mxGeometry x="0.0933" relative="1" as="geometry">
            <mxPoint as="offset" />
          </mxGeometry>
        </mxCell>
        <mxCell id="sAVfpXOolL90ge-oOt5B-3" value="&lt;div&gt;Product team&lt;/div&gt;&lt;div&gt;工單資訊完整性檢查&lt;/div&gt;&lt;div&gt;以及一張工單一個客戶資訊&lt;/div&gt;" style="rhombus;whiteSpace=wrap;html=1;" vertex="1" parent="1">
          <mxGeometry x="235" y="290" width="190" height="150" as="geometry" />
        </mxCell>
        <mxCell id="sAVfpXOolL90ge-oOt5B-4" value="GTM 重新填寫" style="rounded=0;whiteSpace=wrap;html=1;" vertex="1" parent="1">
          <mxGeometry x="50" y="335" width="120" height="60" as="geometry" />
        </mxCell>
        <mxCell id="sAVfpXOolL90ge-oOt5B-23" value="" style="edgeStyle=orthogonalEdgeStyle;rounded=0;orthogonalLoop=1;jettySize=auto;html=1;" edge="1" parent="1" source="sAVfpXOolL90ge-oOt5B-9" target="sAVfpXOolL90ge-oOt5B-22">
          <mxGeometry relative="1" as="geometry" />
        </mxCell>
        <mxCell id="sAVfpXOolL90ge-oOt5B-9" value="&lt;div&gt;確認&lt;/div&gt;&lt;div&gt;帳號資訊正確性&lt;/div&gt;" style="rounded=0;whiteSpace=wrap;html=1;" vertex="1" parent="1">
          <mxGeometry x="520" y="180" width="120" height="60" as="geometry" />
        </mxCell>
        <mxCell id="sAVfpXOolL90ge-oOt5B-15" value="" style="edgeStyle=orthogonalEdgeStyle;rounded=0;orthogonalLoop=1;jettySize=auto;html=1;" edge="1" parent="1" source="sAVfpXOolL90ge-oOt5B-10" target="sAVfpXOolL90ge-oOt5B-11">
          <mxGeometry relative="1" as="geometry" />
        </mxCell>
        <mxCell id="sAVfpXOolL90ge-oOt5B-17" value="Ｎ" style="edgeLabel;html=1;align=center;verticalAlign=middle;resizable=0;points=[];" vertex="1" connectable="0" parent="sAVfpXOolL90ge-oOt5B-15">
          <mxGeometry y="3" relative="1" as="geometry">
            <mxPoint as="offset" />
          </mxGeometry>
        </mxCell>
        <mxCell id="sAVfpXOolL90ge-oOt5B-16" value="" style="edgeStyle=orthogonalEdgeStyle;rounded=0;orthogonalLoop=1;jettySize=auto;html=1;" edge="1" parent="1" source="sAVfpXOolL90ge-oOt5B-10" target="sAVfpXOolL90ge-oOt5B-9">
          <mxGeometry relative="1" as="geometry" />
        </mxCell>
        <mxCell id="sAVfpXOolL90ge-oOt5B-18" value="Ｙ" style="edgeLabel;html=1;align=center;verticalAlign=middle;resizable=0;points=[];" vertex="1" connectable="0" parent="sAVfpXOolL90ge-oOt5B-16">
          <mxGeometry x="-0.1" y="-4" relative="1" as="geometry">
            <mxPoint as="offset" />
          </mxGeometry>
        </mxCell>
        <mxCell id="sAVfpXOolL90ge-oOt5B-10" value="&lt;div&gt;GTM 再次確認&lt;/div&gt;&lt;div&gt;帳號正確性&lt;/div&gt;" style="rhombus;whiteSpace=wrap;html=1;" vertex="1" parent="1">
          <mxGeometry x="500" y="330" width="160" height="70" as="geometry" />
        </mxCell>
        <mxCell id="sAVfpXOolL90ge-oOt5B-21" style="edgeStyle=orthogonalEdgeStyle;rounded=0;orthogonalLoop=1;jettySize=auto;html=1;entryX=0.5;entryY=1;entryDx=0;entryDy=0;" edge="1" parent="1" source="sAVfpXOolL90ge-oOt5B-11" target="sAVfpXOolL90ge-oOt5B-3">
          <mxGeometry relative="1" as="geometry" />
        </mxCell>
        <mxCell id="sAVfpXOolL90ge-oOt5B-11" value="請GTM 重新填寫" style="rounded=0;whiteSpace=wrap;html=1;" vertex="1" parent="1">
          <mxGeometry x="520" y="450" width="120" height="60" as="geometry" />
        </mxCell>
        <mxCell id="sAVfpXOolL90ge-oOt5B-22" value="&lt;div&gt;GTM 進行停用帳戶的&lt;/div&gt;&lt;div&gt;資源回收&lt;/div&gt;" style="whiteSpace=wrap;html=1;rounded=0;" vertex="1" parent="1">
          <mxGeometry x="720" y="180" width="120" height="60" as="geometry" />
        </mxCell>
      </root>
    </mxGraphModel>
  </diagram>
</mxfile>
